<?xml version="1.0" encoding="utf-8"?>
<!-- Generator: Adobe Illustrator 21.1.0, SVG Export Plug-In . SVG Version: 6.00 Build 0)  -->
<svg version="1.1" id="Слой_1" xmlns:sketch="http://www.bohemiancoding.com/sketch/ns"
	 xmlns="http://www.w3.org/2000/svg" xmlns:xlink="http://www.w3.org/1999/xlink" x="0px" y="0px" viewBox="0 0 20 20"
	 style="enable-background:new 0 0 20 20;" xml:space="preserve">
<style type="text/css">
	.st0{fill:#FFFFFF;}
</style>
<title></title>
<desc></desc>
<g id="Page-1">
	<g id="Core" transform="translate(-86.000000, -2.000000)">
		<g id="account-circle" transform="translate(86.000000, 2.000000)">
			<path id="Shape" class="st0" d="M10,3c-3.8,0-7,3.2-7,7s3.2,7,7,7s7-3.1,7-7S13.9,3,10,3L10,3z M10,5.1c1.2,0,2.1,0.9,2.1,2.1
				S11.2,9.3,10,9.3S7.9,8.4,7.9,7.2S8.8,5.1,10,5.1L10,5.1z M10,15c-1.8,0-3.3-0.9-4.2-2.2c0-1.4,2.8-2.2,4.2-2.2s4.2,0.8,4.2,2.2
				C13.3,14.1,11.8,15,10,15L10,15z"/>
		</g>
	</g>
</g>
</svg>
