<?xml version="1.0" encoding="utf-8"?>
<!-- Generator: Adobe Illustrator 21.1.0, SVG Export Plug-In . SVG Version: 6.00 Build 0)  -->
<svg version="1.1" id="Слой_1" xmlns:sketch="http://www.bohemiancoding.com/sketch/ns"
	 xmlns="http://www.w3.org/2000/svg" xmlns:xlink="http://www.w3.org/1999/xlink" x="0px" y="0px" viewBox="0 0 16 16"
	 style="enable-background:new 0 0 16 16;" xml:space="preserve">
<style type="text/css">
	.st0{fill:#FFFFFF;}
</style>
<title></title>
<desc></desc>
<g id="Page-1">
	<g id="Core" transform="translate(-424.000000, -340.000000)">
		<g id="refresh" transform="translate(424.000000, 340.000000)">
			<path id="Shape" class="st0" d="M12.2,3.8C11.1,2.7,9.6,2,8,2C4.7,2,2,4.7,2,8s2.7,6,6,6c2.8,0,5.1-2,5.8-4.5h-1.6
				c-0.6,1.7-2.3,3-4.2,3c-2.5,0-4.5-2-4.5-4.5s2-4.5,4.5-4.5c1.3,0,2.3,0.5,3.1,1.3L8.8,7.3H14V2L12.2,3.8L12.2,3.8z"/>
		</g>
	</g>
</g>
</svg>
